PathFileType	4	(X/Y/Z)	C:/Users/beibeiliu/ov580/test_trc/User2\sequence.23_training_dense_left.trc
DataRate	CameraRate	NumFrames	NumMarkers	Units	OrigDataRate	OrigDataStartFrame	OrigNumFrames
120	120	19	19	mm	120	1	79
Frame#	Time	ThumbCMC			ThumbMCP			ThumbIP			ThumbTip			IndexMCP			IndexPIP			IndexTip			MiddleMCP			MiddlePIP			MiddleTip			RingMCP			RingPIP			RingTip			PinkyMCP			PinkyPIP			PinkyTip			BackHand1			BackHand2			BackHand3	
		X0	Y0	Z0	X1	Y1	Z1	X2	Y2	Z2	X3	Y3	Z3	X4	Y4	Z4	X5	Y5	Z5	X6	Y6	Z6	X7	Y7	Z7	X8	Y8	Z8	X9	Y9	Z9	X10	Y10	Z10	X11	Y11	Z11	X12	Y12	Z12	X13	Y13	Z13	X14	Y14	Z14	X15	Y15	Z15	X16	Y16	Z16	X17	Y17	Z17	X18	Y18	Z18	
0	0	-290.043	59.6435	-5.24238	-276.928	78.9269	-33.7299	-259.977	88.6967	-65.4389	-233.421	80.1425	-83.9058	-258.377	22.9115	-75.6193	-238.974	38.3191	-96.4437	-218.485	70.5335	-94.6385	-239.303	13.0644	-76.236	-214.845	35.3165	-94.2618	-201.767	69.5336	-80.3305	-221.438	7.44397	-68.2445	-203.554	25.6975	-83.0339	-196.587	59.3353	-72.0602	-204.711	3.01098	-46.4016	-189.904	21.7815	-64.1575	-189.254	54.3933	-63.9604	-249.614	-4.73822	-11.8475	-260.337	-0.76549	25.306	-283.705	13.4596	-5.01211	
1	0.00833333	-299.872	51.0791	-8.78265	-292.343	69.0256	-39.1657	-274.974	73.925	-68.0302	-251.376	68.8429	-88.5702	-271.088	11.5673	-77.5378	-250.429	27.5645	-100.444	-233.855	59.2013	-97.9455	-251.99	2.89213	-79.9316	-231.705	22.2963	-98.1398	-218.819	59.657	-84.1088	-231.516	-5.05486	-66.7583	-218.7	16.0206	-86.6851	-213.317	54.0619	-74.1496	-220.088	-4.41567	-44.9974	-201.885	16.0885	-70.9473	-200.764	44.4062	-70.2586	-257.306	-9.73415	-7.43027	-269.198	-5.5714	22.7708	-293.348	7.55949	-6.55276	
2	0.0166667	-308.926	44.8823	-9.14059	-302.27	59.8044	-39.2956	-287.141	63.8353	-76.9798	-267.53	58.3829	-91.0195	-286.919	1.93515	-83.8563	-266.601	12.1783	-102.173	-252.255	42.8246	-105.907	-265.976	-11.8736	-77.6303	-245.73	8.40131	-101.454	-235.276	44.5994	-91.3522	-250.945	-16.3183	-68.278	-231.844	4.96172	-90.8346	-226.496	37.808	-78.6066	-232.149	-18.1891	-48.2604	-216.038	-0.699465	-74.4479	-216.143	29.2537	-73.7624	-267.897	-18.6746	-8.39133	-278.141	-10.0893	21.4803	-302.583	0.8738	-3.63303	
3	0.025	-318.658	35.2838	-17.8534	-308.857	46.1517	-45.8519	-296.864	49.0041	-79.6396	-279.32	43.2657	-97.8386	-299.346	-14.1253	-83.1971	-281.53	-2.2563	-108.828	-261.434	20.5124	-107.711	-284.36	-27.4094	-78.6423	-260.139	-10.2934	-105.606	-245.803	23.7609	-95.4454	-266.441	-33.8723	-72.5422	-247.088	-17.3625	-94.4142	-241.13	13.8227	-88.0549	-251.414	-32.8715	-49.964	-236.396	-22.3216	-80.1427	-228.823	8.27505	-81.6833	-281.322	-29.9459	-12.9612	-286.092	-22.4758	20.2208	-314.885	-9.03897	-7.71795	
4	0.0333333	-324.936	26.5954	-15.7646	-318.489	35.8022	-51.6532	-308.853	38.4697	-84.602	-291.724	26.4734	-105.934	-322.692	-24.442	-83.299	-303.554	-20.1233	-108.816	-280.735	4.99511	-115.499	-305.955	-41.1968	-86.2676	-281.77	-24.8923	-110.058	-263.045	3.53521	-103.491	-284.121	-51.522	-72.1404	-268.476	-35.4547	-99.0026	-255.606	-3.87572	-89.3014	-267.506	-53.8333	-53.7681	-258.736	-43.3377	-82.4875	-246.065	-13.304	-86.1425	-299.694	-43.0463	-13.0916	-306.01	-29.9451	16.0346	-328.228	-16.2275	-8.72181	
5	0.0416667	-334.004	24.2929	-20.429	-327.314	33.0467	-51.8045	-318.946	28.8576	-87.7197	-306.3	16.5455	-109.135	-347.526	-22.4532	-83.1259	-324.066	-23.1483	-110.791	-300.804	-4.18302	-117.534	-331.215	-45.656	-85.1625	-310.274	-35.4152	-112.182	-280.917	-11.2631	-104.933	-313.787	-59.6717	-74.4185	-294.464	-48.4979	-100.957	-276.249	-22.0213	-94.5781	-299.615	-64.3363	-56.7422	-288.427	-58.3419	-85.2305	-269.464	-31.4341	-88.1651	-324.976	-43.7963	-12.0217	-322.496	-34.0204	16.9976	-346.9	-12.1952	-8.21001	
6	0.05	-335.298	34.4475	-19.1985	-326.632	41.1237	-52.3993	-318.92	35.39	-83.0127	-314.635	18.4603	-105.912	-364.519	-10.0787	-84.4834	-350.777	-9.491	-109.296	-317.683	-4.93688	-116.602	-359.442	-33.4818	-84.6924	-339.971	-29.6713	-111.496	-300.779	-14.6832	-107.347	-349.765	-47.0719	-73.921	-329.765	-46.8349	-101.511	-299.242	-23.5249	-96.2799	-333.751	-63.6324	-58.9422	-318.662	-57.4127	-90.406	-295.539	-38.5003	-91.7855	-347.741	-34.0434	-12.3675	-340.983	-28.9584	19.0675	-358.669	-1.40516	-3.72123	
7	0.0583333	-322.26	44.2097	-10.9217	-312.122	48.0512	-45.6642	-311.037	44.5763	-84.2749	-313.021	28.0327	-106.746	-373.039	20.9643	-78.9914	-356.732	14.7761	-108.086	-328.991	5.22719	-114.842	-377.526	-1.59077	-81.1566	-358.424	-7.61388	-108.647	-315.831	-6.36272	-106.211	-374.794	-20.2961	-72.9534	-356.252	-29.0349	-100.102	-322.385	-22.6395	-96.9098	-367.387	-42.3375	-61.0837	-353.48	-41.1452	-88.7053	-319.697	-32.9488	-93.2292	-365.524	-18.8915	-8.71202	-355.426	-13.7214	19.6977	-360.959	23.0407	-0.025756	
8	0.0666667	-305.04	43.4561	-9.93944	-295.923	44.0441	-44.1597	-296.119	41.1946	-77.5176	-307.689	29.5414	-103.395	-361.4	51.3884	-70.1875	-351.079	39.7808	-103.247	-323.541	22.5742	-113.326	-375.364	33.4361	-72.0307	-360.427	17.7192	-106.081	-326.619	1.62271	-106.297	-382.277	11.0888	-70.0608	-369.303	0.250601	-97.6617	-332.355	-6.98282	-96.7007	-381.582	-12.4557	-54.5715	-371.695	-13.4074	-86.3908	-340.314	-20.568	-97.2627	-368.971	7.38296	-6.7857	-355.464	1.6203	25.1638	-346.445	37.3584	5.51013	
9	0.075	-285.515	33.0815	-5.64373	-272.266	34.4467	-42.8452	-271.968	34.3862	-75.9947	-289.314	26.8225	-98.7678	-331.6	70.3396	-65.8934	-331.128	60.4593	-95.164	-315.353	32.3	-110.573	-352.234	59.9147	-69.3484	-344.288	45.7937	-102.397	-322.98	14.4985	-106.723	-366.247	42.8875	-67.3836	-363.061	28.0147	-94.9847	-333.064	5.60586	-97.2503	-373.375	18.9744	-51.7978	-367.862	11.9713	-86.7957	-343.616	-1.9619	-97.5897	-359.683	25.5457	-2.93616	-348.673	16.732	24.3143	-323.759	45.1533	10.1235	
10	0.0833333	-266.727	27.8405	-6.52355	-255.352	25.0437	-40.0666	-255.509	25.8999	-75.7749	-270.875	25.0628	-101.624	-305.135	72.5459	-65.915	-301.156	64.4913	-95.4839	-294.686	31.0943	-109.033	-326.611	68.0504	-70.8023	-321.179	53.6885	-101.276	-310.214	16.5662	-106.966	-347.864	51.1404	-66.4295	-341.365	40.3591	-95.8429	-317.105	10.3634	-98.3714	-355.937	32.7809	-53.8237	-351.131	26.3098	-88.1864	-331.058	6.41028	-98.7431	-341.961	35.1386	-3.6191	-333.417	23.4275	21.8547	-305.505	46.1542	9.86587	
11	0.0916667	-253.539	19.7831	-4.02822	-234.484	16.8593	-38.049	-233.485	16.2663	-73.7144	-250.13	13.9393	-97.27	-280.411	67.0595	-70.9362	-276.508	54.1013	-100.67	-273.041	24.5783	-109.331	-303.375	62.4635	-73.5155	-298.977	43.9061	-107.104	-286.289	5.15491	-108.058	-324.679	48.0283	-70.6609	-315.763	35.8287	-99.6687	-300.143	3.78009	-100.995	-334.685	33.5272	-64.1352	-328.498	23.2466	-90.4238	-310.512	-3.69706	-100.85	-325.87	38.1799	-9.35732	-321.39	24.2869	20.4538	-285.847	44.8773	4.02787	
12	0.1	-238.854	14.0677	-6.36422	-222.631	2.79849	-34.4758	-213.152	-3.90565	-69.6703	-225.617	-8.55037	-96.3255	-257.57	47.731	-79.4149	-250.585	31.3064	-105.232	-247.74	0.720888	-109.656	-278.843	42.6398	-83.7579	-273.249	17.4558	-111.754	-265.171	-17.4143	-108.071	-304.274	28.2031	-80.5988	-289.38	8.89919	-105.13	-275.437	-21.5803	-97.5404	-317.792	13.2202	-67.1996	-307.048	-0.503377	-94.0735	-284.934	-27.5926	-96.9054	-304.673	29.3071	-18.6649	-304.366	19.9364	17.035	-272.082	36.1197	0.547288	
13	0.108333	-222.186	1.16974	-0.105401	-202.649	-14.2027	-29.8325	-195.487	-27.3186	-62.2267	-206.562	-39.2848	-86.9552	-241.985	20.3915	-80.0479	-232.256	2.00885	-104.628	-224.351	-34.5762	-103.487	-259.878	12.8101	-90.052	-248.729	-15.7705	-109.909	-239.351	-48.6317	-100.368	-280.3	-0.82771	-85.4938	-270.01	-22.9938	-102.045	-252.215	-51.155	-89.4766	-293.911	-12.2879	-72.5662	-281.266	-37.3121	-91.41	-261.038	-57.6271	-84.7265	-289.74	13.0854	-23.8475	-291.866	14.106	10.6688	-258.745	27.5131	-1.8019	
14	0.116667	-208.762	1.64921	4.13928	-188.263	-19.2438	-16.4459	-175.824	-38.8969	-45.1461	-183.641	-55.8207	-67.6516	-224.087	-0.955697	-80.5146	-212.098	-22.96	-97.6304	-198.692	-54.074	-90.4508	-239.868	-10.3222	-84.1811	-224.024	-40.3606	-100.132	-209.802	-74.8231	-81.5263	-258.847	-26.627	-80.4003	-243.518	-52.5764	-92.111	-223.764	-72.3694	-75.0863	-275.616	-40.5906	-67.5328	-259.135	-61.9725	-79.8359	-232.603	-83.2017	-68.3774	-279.977	-1.53228	-22.7954	-279.47	4.69219	7.67556	-249.484	20.1661	-7.38314	
15	0.125	-202.165	16.7612	7.87648	-175.977	-2.41977	-10.0294	-156.92	-23.1987	-35.7163	-155.281	-44.2779	-49.2534	-207.228	-1.25913	-74.126	-186.448	-22.1167	-87.9906	-167.973	-51.6151	-75.3002	-222.491	-18.937	-77.4256	-192.472	-45.3714	-86.9968	-173.625	-67.8381	-66.753	-236.123	-37.7859	-70.8078	-212.202	-57.8752	-78.1491	-188.45	-72.6255	-57.1627	-248.91	-53.426	-56.25	-223.793	-69.6042	-64.9642	-195.456	-79.2741	-52.8849	-263.41	-9.13977	-23.9025	-272.044	1.98772	7.69326	-243.872	24.2681	-11.8611	
16	0.133333	-213.135	40.2895	5.18525	-178.101	30.3095	-13.5766	-154.901	14.9715	-31.0217	-145.953	-8.96221	-47.7241	-206.945	8.41425	-72.3513	-177.108	-8.43129	-82.4879	-150.714	-19.9025	-70.4965	-212.741	-14.8238	-72.8105	-176.884	-30.3767	-79.9973	-149.202	-37.9263	-56.92	-214.691	-32.7776	-66.0418	-185.096	-47.4903	-69.4784	-156.891	-45.683	-45.4665	-222.086	-51.4688	-48.6493	-194.717	-59.4571	-55.1783	-166.782	-55.8778	-43.9031	-258.342	-13.3232	-19.1046	-270.661	-2.18732	4.49809	-252.8	23.857	-16.1484	
17	0.141667	-233.867	54.1669	-5.58501	-201.223	56.8929	-18.4875	-171.77	49.8281	-38.2542	-153.11	29.954	-52.6556	-216.052	18.865	-77.4282	-181.769	11.1038	-85.9081	-153.763	13.6432	-73.6862	-208.507	-7.09553	-77.215	-173.837	-6.19027	-81.2099	-143.124	0.594667	-53.7742	-206.485	-27.1583	-64.6909	-175.971	-27.0484	-69.0818	-151.587	-6.50258	-49.1079	-208.931	-39.4557	-43.9301	-175.238	-39.226	-52.3676	-154.361	-25.0624	-44.7189	-253.673	-15.5653	-21.7266	-269.118	-10.6068	4.94909	-264.23	18.6378	-18.0983	
18	0.15	-257.349	56.5948	-14.9697	-229.51	66.7611	-29.5829	-197.652	67.0691	-55.0695	-178.974	50.7027	-63.0811	-232.66	18.5894	-81.2046	-200.973	22.1559	-95.1995	-171.404	32.2744	-82.258	-221.159	-2.4669	-79.4041	-181.187	6.62301	-85.6682	-159.278	23.4902	-66.4486	-211.299	-19.5905	-65.1436	-178.086	-10.6835	-72.2986	-159.877	17.6713	-55.3576	-206.109	-30.6744	-43.3836	-176.636	-19.5384	-57.0783	-160.084	0.72822	-53.5172	-255.835	-15.8584	-19.239	-272.421	-13.8938	8.8806	-274.019	13.0406	-17.8949	
